<svg width="22" height="18" viewBox="0 0 22 18" fill="none" xmlns="http://www.w3.org/2000/svg">
<path d="M17.2823 13.6171L17.3013 13.6332L17.3219 13.6474L19.5734 15.194L19.6513 15.2474C19.7884 15.4298 19.7612 15.6562 19.5695 15.8211C19.305 16.0486 18.8521 16.0515 18.5828 15.8297L16.7272 14.0199L16.7272 14.0199L16.7244 14.0172L16.6662 13.9613C16.6191 13.907 16.6023 13.8523 16.6023 13.8065C16.6023 13.7518 16.6269 13.6811 16.7021 13.616C16.8565 13.4868 17.1285 13.4871 17.2823 13.6171ZM10.1707 1.99458C12.0653 1.99458 13.8698 2.64261 15.1899 3.77808C16.5076 4.91154 17.23 6.43123 17.23 7.99668C17.23 11.2435 14.1428 13.9988 10.1707 13.9988C6.19859 13.9988 3.11143 11.2435 3.11143 7.99668C3.11143 4.74988 6.19859 1.99458 10.1707 1.99458Z" stroke="#AEAEAE" stroke-width="1.00069"/>
</svg>
